
<svg xmlns="http://www.w3.org/2000/svg" viewBox="0 0 800 900" fill="none">
  <style>
    .main { fill: #dfdfdf; }
    .outline { fill: #a92222; }
    .shadow { fill: #7a0c0c; }
  </style>
  <path class="outline" d="M440 860C626.5 818 710.5 636 689 452.5C667.5 269 540.5 150 440 127C339.5 150 212.5 269 191 452.5C169.5 636 253.5 818 440 860Z" stroke="#711212" stroke-width="8"/>
  <path class="main" d="M447.5 90C430 92.5 401 111 385 115C369 119 345.5 108 333.5 127.5C321.5 147 331 170.5 325.5 190C320 209.5 330 228 315 245.5C300 263 284.5 245.5 266 257.5C247.5 269.5 255 298.5 240 311C225 323.5 199 318 189.5 339.5C180 361 193.5 386 182 406.5C170.5 427 171.5 440 167.5 463C163.5 486 155.5 508.5 171.5 528.5C187.5 548.5 230 542 250 560C270 578 291 603.5 306 622.5C321 641.5 329 653 344 670.5C359 688 375.5 705.5 398 720.5C420.5 705.5 437 688 452 670.5C467 653 475 641.5 490 622.5C505 603.5 526 578 546 560C566 542 608.5 548.5 624.5 528.5C640.5 508.5 632.5 486 628.5 463C624.5 440 625.5 427 614 406.5C602.5 386 616 361 606.5 339.5C597 318 571 323.5 556 311C541 298.5 548.5 269.5 530 257.5C511.5 245.5 496 263 481 245.5C466 228 476 209.5 470.5 190C465 170.5 474.5 147 462.5 127.5C450.5 108 427 119 411 115C395 111 465 87.5 447.5 90Z" stroke="#711212" stroke-width="5"/>
  <path class="shadow" d="M461 197C450.5 208 440 214.5 425 220C410 225.5 393.5 223.5 378.5 228C363.5 232.5 353 236.5 343 248.5C333 260.5 311 297 308 314.5C305 332 321.5 341 334.5 351.5C347.5 362 371.5 371 389 374.5C406.5 378 423 377 440 377C457 377 473.5 378 491 374.5C508.5 371 532.5 362 545.5 351.5C558.5 341 575 332 572 314.5C569 297 547 260.5 537 248.5C527 236.5 516.5 232.5 501.5 228C486.5 223.5 470 225.5 455 220C440 214.5 429.5 208 419 197" stroke="#711212" stroke-width="3"/>
  <path class="main" d="M438.5 376L438.5 800" stroke="#711212" stroke-width="5"/>
  <path class="shadow" d="M390 416C397.722 416 405.111 414.222 412.167 410.667C419.222 407.111 425.889 401.778 432.167 394.667L445.167 378.333L445.167 333L432.167 316.667C425.889 309.556 419.222 304.222 412.167 300.667C405.111 297.111 397.722 295.333 390 295.333C382.278 295.333 375.056 297.111 368.333 300.667C361.611 304.222 355.444 309.556 349.833 316.667L337.5 333L337.5 378.333L349.833 394.667C355.444 401.778 361.611 407.111 368.333 410.667C375.056 414.222 382.278 416 390 416Z" stroke="#711212" stroke-width="3"/>
  <path class="shadow" d="M490 416C482.278 416 474.889 414.222 467.833 410.667C460.778 407.111 454.111 401.778 447.833 394.667L434.833 378.333L434.833 333L447.833 316.667C454.111 309.556 460.778 304.222 467.833 300.667C474.889 297.111 482.278 295.333 490 295.333C497.722 295.333 504.944 297.111 511.667 300.667C518.389 304.222 524.556 309.556 530.167 316.667L542.5 333L542.5 378.333L530.167 394.667C524.556 401.778 518.389 407.111 511.667 410.667C504.944 414.222 497.722 416 490 416Z" stroke="#711212" stroke-width="3"/>
  <path class="outline" d="M400.5 194.5C405.5 193.67 410.5 192.833 415.5 192C423 191.2 430.5 190.5 438 190.5C445.5 190.5 453 191.2 460.5 192C465.5 192.833 470.5 193.67 475.5 194.5" stroke="#711212" stroke-width="3"/>
  <path class="shadow" d="M427 201L427 219C427 223.333 425.667 227 423 230C420.333 233 416.333 234.5 411 234.5C405.667 234.5 401.667 233 399 230C396.333 227 395 223.333 395 219L395 201L427 201Z" stroke="#711212" stroke-width="3"/>
  <path class="shadow" d="M479 201L479 219C479 223.333 477.667 227 475 230C472.333 233 468.333 234.5 463 234.5C457.667 234.5 453.667 233 451 230C448.333 227 447 223.333 447 219L447 201L479 201Z" stroke="#711212" stroke-width="3"/>
  <path class="outline" d="M440 147C447.833 133 458.333 121.167 471.5 111.5C480.5 104.833 490.333 99.3333 501 95C509.833 91.5 519.833 88.6667 531 86.5" stroke="#711212" stroke-width="5"/>
  <path class="outline" d="M446 147C438.167 133 427.667 121.167 414.5 111.5C405.5 104.833 395.667 99.3333 385 95C376.167 91.5 366.167 88.6667 355 86.5" stroke="#711212" stroke-width="5"/>
</svg>
